<svg width="50" height="50" viewBox="0 0 50 50" fill="none" xmlns="http://www.w3.org/2000/svg">
<path fill-rule="evenodd" clip-rule="evenodd" d="M0.0273928 10.5867C-0.31371 6.68787 2.57039 3.25073 6.46922 2.90963L39.4133 0.0273928C43.3121 -0.31371 46.7493 2.57039 47.0904 6.46922L49.9726 39.4133C50.3137 43.3121 47.4296 46.7493 43.5308 47.0904L10.5867 49.9726C6.68787 50.3137 3.25073 47.4296 2.90963 43.5308L0.0273928 10.5867ZM6.88097 7.61592C5.58136 7.72963 4.61999 8.87534 4.73369 10.1749L7.61592 43.119C7.72963 44.4186 8.87534 45.38 10.1749 45.2663L43.119 42.3841C44.4186 42.2704 45.38 41.1247 45.2663 39.8251L42.3841 6.88097C42.2704 5.58136 41.1247 4.61999 39.8251 4.73369L6.88097 7.61592Z" fill="#1177FF"/>
<path d="M43.3249 44.7372L19.2208 18.4953C18.1636 17.3444 16.3002 17.5189 15.4751 18.846L4.64515 36.2655L5.46865 45.6781L8.02767 47.8253L43.3249 44.7372Z" fill="#1177FF"/>
<path d="M32.4755 24.4231L17.4403 47.0018L45.6781 44.5313L47.8253 41.9723L47.4136 37.266L36.2368 24.1971C35.2184 23.0063 33.344 23.1189 32.4755 24.4231Z" fill="#1177FF"/>
</svg>